<?xml version="1.0" standalone="no"?>
<!DOCTYPE svg PUBLIC "-//W3C//DTD SVG 20010904//EN"
 "http://www.w3.org/TR/2001/REC-SVG-20010904/DTD/svg10.dtd">
<svg version="1.0" xmlns="http://www.w3.org/2000/svg"
 width="700.000000pt" height="700.000000pt" viewBox="0 0 700.000000 700.000000"
 preserveAspectRatio="xMidYMid meet">
<metadata>
Created by potrace 1.11, written by Peter Selinger 2001-2013
</metadata>
<g transform="translate(0.000000,700.000000) scale(0.100000,-0.100000)"
fill="#000000" stroke="none">
<path d="M3350 6672 c-95 -7 -328 -44 -384 -61 -17 -5 -43 -12 -57 -15 l-26
-6 1 -162 c0 -150 -9 -354 -19 -403 -2 -11 -7 -47 -10 -80 -3 -33 -7 -71 -10
-85 -3 -14 -8 -41 -11 -60 -16 -106 -28 -169 -55 -295 -37 -172 -38 -175 -51
-175 -21 0 -196 -75 -303 -130 -511 -261 -905 -701 -1118 -1246 -50 -127 -106
-332 -122 -444 -3 -25 -8 -52 -10 -60 -18 -67 -26 -449 -13 -565 4 -33 10 -85
14 -116 l6 -55 -107 -100 c-149 -138 -153 -142 -225 -206 -187 -163 -551 -445
-732 -567 l-66 -45 20 -50 c87 -221 264 -530 405 -706 56 -69 204 -222 212
-218 389 201 687 326 1079 453 l193 63 57 -46 c31 -25 59 -49 62 -52 19 -24
273 -180 373 -229 399 -195 797 -271 1242 -238 446 34 926 225 1273 506 34 28
70 51 80 51 17 0 369 -112 407 -129 11 -5 63 -25 115 -44 157 -58 375 -153
560 -245 96 -48 177 -88 181 -90 12 -6 158 148 249 264 111 141 263 409 351
618 l37 90 -106 74 c-112 78 -333 241 -342 251 -3 3 -25 21 -50 40 -61 47
-265 217 -315 263 -22 20 -51 46 -65 58 -14 12 -76 69 -138 127 l-113 106 5
56 c3 31 9 81 13 111 10 73 10 377 0 465 -15 140 -38 268 -67 375 -54 201
-163 454 -270 625 -49 78 -165 238 -213 294 -67 77 -255 258 -317 306 -36 27
-67 52 -70 56 -12 15 -213 141 -300 187 -99 52 -266 125 -312 137 -22 6 -30
16 -42 58 -24 85 -69 309 -81 400 -3 26 -10 69 -14 95 -5 26 -12 83 -16 127
-4 44 -9 89 -12 100 -2 11 -6 123 -8 249 -2 181 -5 230 -16 236 -21 12 -177
47 -239 55 -30 3 -62 8 -70 10 -60 15 -327 26 -440 17z m-700 -1669 c0 -5 11
-21 25 -37 14 -16 25 -33 25 -37 0 -17 157 -167 215 -206 268 -179 602 -226
910 -126 223 72 359 176 515 393 l15 21 65 -32 c124 -60 305 -176 405 -261 55
-46 74 -63 121 -108 263 -251 475 -611 565 -958 59 -231 77 -391 70 -647 l-1
-40 -59 1 c-99 1 -204 -17 -291 -48 -329 -118 -584 -414 -660 -763 -22 -103
-25 -285 -5 -387 23 -116 74 -239 137 -330 15 -21 9 -26 -107 -96 -197 -119
-380 -198 -572 -247 -54 -13 -116 -27 -138 -30 -22 -3 -46 -8 -53 -10 -55 -19
-441 -27 -577 -12 -197 21 -439 90 -630 180 -134 62 -335 182 -335 199 0 4 15
31 34 60 42 66 70 127 90 198 27 95 31 131 30 290 -1 138 -4 165 -28 244 -56
186 -139 327 -271 461 -180 184 -376 275 -625 291 -52 4 -97 8 -99 10 -2 2 -2
174 0 274 0 8 7 69 15 134 56 448 265 871 593 1196 64 63 127 124 141 135 129
102 281 201 405 263 65 33 75 36 75 25z"/>
<path d="M2566 4782 c-200 -497 -456 -952 -766 -1362 -48 -63 -96 -125 -106
-136 -11 -12 -32 -39 -49 -60 -16 -21 -43 -53 -59 -71 -16 -19 -27 -36 -24
-38 2 -2 29 -7 59 -10 336 -38 680 -291 849 -625 40 -80 93 -223 104 -280 3
-19 9 -46 12 -60 3 -14 8 -77 11 -141 8 -153 -17 -322 -63 -428 -9 -20 -22
-51 -30 -69 -16 -37 -17 -45 -6 -39 4 3 25 8 47 11 22 4 76 13 120 21 44 8
103 17 130 20 28 4 59 8 71 10 20 3 110 13 189 20 314 29 729 24 1005 -11 25
-3 59 -8 75 -10 68 -8 163 -21 205 -29 14 -3 39 -7 55 -10 17 -2 51 -8 76 -13
l47 -9 -25 55 c-129 291 -117 644 33 944 135 273 349 474 609 575 111 43 139
51 228 65 42 6 77 14 77 17 0 3 -32 44 -71 91 -195 234 -443 590 -569 815 -18
33 -46 83 -61 110 -85 151 -286 587 -305 659 -9 39 -22 41 -46 9 -12 -15 -54
-59 -92 -96 -339 -329 -897 -404 -1339 -181 -121 61 -291 201 -344 282 -9 12
-18 22 -22 22 -3 0 -15 -21 -25 -48z m1169 -771 c417 -110 707 -490 699 -916
-1 -60 -5 -126 -8 -145 -86 -460 -464 -780 -922 -781 -122 0 -196 12 -310 51
-326 111 -567 399 -621 743 -13 78 -7 260 11 337 65 285 242 513 503 644 70
35 187 73 248 81 28 4 52 9 54 11 14 13 273 -6 346 -25z"/>
</g>
</svg>
