<svg version="1" xmlns="http://www.w3.org/2000/svg" width="933.333" height="933.333" viewBox="0 0 700.000000 700.000000"><path d="M335 32.8c-9.5.7-32.8 4.4-38.4 6.1-1.7.5-4.3 1.2-5.7 1.5l-2.6.6.1 16.2c0 15-.9 35.4-1.9 40.3-.2 1.1-.7 4.7-1 8-.3 3.3-.7 7.1-1 8.5-.3 1.4-.8 4.1-1.1 6-1.6 10.6-2.8 16.9-5.5 29.5-3.7 17.2-3.8 17.5-5.1 17.5-2.1 0-19.6 7.5-30.3 13-51.1 26.1-90.5 70.1-111.8 124.6-5 12.7-10.6 33.2-12.2 44.4-.3 2.5-.8 5.2-1 6-1.8 6.7-2.6 44.9-1.3 56.5.4 3.3 1 8.5 1.4 11.6l.6 5.5-10.7 10c-14.9 13.8-15.3 14.2-22.5 20.6-18.7 16.3-55.1 44.5-73.2 56.7l-6.6 4.5 2 5c8.7 22.1 26.4 53 40.5 70.6 5.6 6.9 20.4 22.2 21.2 21.8 38.9-20.1 68.7-32.6 107.9-45.3l19.3-6.3 5.7 4.6c3.1 2.5 5.9 4.9 6.2 5.2 1.9 2.4 27.3 18 37.3 22.9 39.9 19.5 79.7 27.1 124.2 23.8 44.6-3.4 92.6-22.5 127.3-50.6 3.4-2.8 7-5.1 8-5.1 1.7 0 36.9 11.2 40.7 12.9 1.1.5 6.3 2.5 11.5 4.4 15.7 5.8 37.5 15.3 56 24.5 9.6 4.8 17.7 8.8 18.1 9 1.2.6 15.8-14.8 24.9-26.4 11.1-14.1 26.3-40.9 35.1-61.8l3.7-9-10.6-7.4c-11.2-7.8-33.3-24.1-34.2-25.1-.3-.3-2.5-2.1-5-4-6.1-4.7-26.5-21.7-31.5-26.3-2.2-2-5.1-4.6-6.5-5.8-1.4-1.2-7.6-6.9-13.8-12.7l-11.3-10.6.5-5.6c.3-3.1.9-8.1 1.3-11.1 1-7.3 1-37.7 0-46.5-1.5-14-3.8-26.8-6.7-37.5-5.4-20.1-16.3-45.4-27-62.5-4.9-7.8-16.5-23.8-21.3-29.4-6.7-7.7-25.5-25.8-31.7-30.6-3.6-2.7-6.7-5.2-7-5.6-1.2-1.5-21.3-14.1-30-18.7-9.9-5.2-26.6-12.5-31.2-13.7-2.2-.6-3-1.6-4.2-5.8-2.4-8.5-6.9-30.9-8.1-40-.3-2.6-1-6.9-1.4-9.5-.5-2.6-1.2-8.3-1.6-12.7-.4-4.4-.9-8.9-1.2-10-.2-1.1-.6-12.3-.8-24.9-.2-18.1-.5-23-1.6-23.6-2.1-1.2-17.7-4.7-23.9-5.5-3-.3-6.2-.8-7-1-6-1.5-32.7-2.6-44-1.7zm-70 166.9c0 .5 1.1 2.1 2.5 3.7s2.5 3.3 2.5 3.7c0 1.7 15.7 16.7 21.5 20.6 26.8 17.9 60.2 22.6 91 12.6 22.3-7.2 35.9-17.6 51.5-39.3l1.5-2.1 6.5 3.2c12.4 6 30.5 17.6 40.5 26.1 5.5 4.6 7.4 6.3 12.1 10.8 26.3 25.1 47.5 61.1 56.5 95.8 5.9 23.1 7.7 39.1 7 64.7l-.1 4-5.9-.1c-9.9-.1-20.4 1.7-29.1 4.8-32.9 11.8-58.4 41.4-66 76.3-2.2 10.3-2.5 28.5-.5 38.7 2.3 11.6 7.4 23.9 13.7 33 1.5 2.1.9 2.6-10.7 9.6-19.7 11.9-38 19.8-57.2 24.7-5.4 1.3-11.6 2.7-13.8 3-2.2.3-4.6.8-5.3 1-5.5 1.9-44.1 2.7-57.7 1.2-19.7-2.1-43.9-9-63-18-13.4-6.2-33.5-18.2-33.5-19.9 0-.4 1.5-3.1 3.4-6 4.2-6.6 7-12.7 9-19.8 2.7-9.5 3.1-13.1 3-29-.1-13.8-.4-16.5-2.8-24.4-5.6-18.6-13.9-32.7-27.1-46.1-18-18.4-37.6-27.5-62.5-29.1-5.2-.4-9.7-.8-9.9-1-.2-.2-.2-17.4 0-27.4 0-.8.7-6.9 1.5-13.4 5.6-44.8 26.5-87.1 59.3-119.6 6.4-6.3 12.7-12.4 14.1-13.5 12.9-10.2 28.1-20.1 40.5-26.3 6.5-3.3 7.5-3.6 7.5-2.5z"/><path d="M256.6 221.8C236.6 271.5 211 317 180 358c-4.8 6.3-9.6 12.5-10.6 13.6-1.1 1.2-3.2 3.9-4.9 6-1.6 2.1-4.3 5.3-5.9 7.1-1.6 1.9-2.7 3.6-2.4 3.8.2.2 2.9.7 5.9 1 33.6 3.8 68 29.1 84.9 62.5 4 8 9.3 22.3 10.4 28 .3 1.9.9 4.6 1.2 6 .3 1.4.8 7.7 1.1 14.1.8 15.3-1.7 32.2-6.3 42.8-.9 2-2.2 5.1-3 6.9-1.6 3.7-1.7 4.5-.6 3.9.4-.3 2.5-.8 4.7-1.1 2.2-.4 7.6-1.3 12-2.1s10.3-1.7 13-2c2.8-.4 5.9-.8 7.1-1 2-.3 11-1.3 18.9-2 31.4-2.9 72.9-2.4 100.5 1.1 2.5.3 5.9.8 7.5 1 6.8.8 16.3 2.1 20.5 2.9 1.4.3 3.9.7 5.5 1 1.7.2 5.1.8 7.6 1.3l4.7.9-2.5-5.5c-12.9-29.1-11.7-64.4 3.3-94.4 13.5-27.3 34.9-47.4 60.9-57.5 11.1-4.3 13.9-5.1 22.8-6.5 4.2-.6 7.7-1.4 7.7-1.7 0-.3-3.2-4.4-7.1-9.1-19.5-23.4-44.3-59-56.9-81.5-1.8-3.3-4.6-8.3-6.1-11-8.5-15.1-28.6-58.7-30.5-65.9-.9-3.9-2.2-4.1-4.6-.9-1.2 1.5-5.4 5.9-9.2 9.6-33.9 32.9-89.7 40.4-133.9 18.1-12.1-6.1-29.1-20.1-34.4-28.2-.9-1.2-1.8-2.2-2.2-2.2-.3 0-1.5 2.1-2.5 4.8zm116.9 77.1c41.7 11 70.7 49 69.9 91.6-.1 6-.5 12.6-.8 14.5-8.6 46-46.4 78-92.2 78.1-12.2 0-19.6-1.2-31-5.1-32.6-11.1-56.7-39.9-62.1-74.3-1.3-7.8-.7-26 1.1-33.7 6.5-28.5 24.2-51.3 50.3-64.4 7-3.5 18.7-7.3 24.8-8.1 2.8-.4 5.2-.9 5.4-1.1 1.4-1.3 27.3.6 34.6 2.5z"/></svg>